<svg width="64" height="64" viewBox="0 0 64 64" fill="none" xmlns="http://www.w3.org/2000/svg">
<g id="Frame" clip-path="url(#clip0_209_1753)">
<path id="Vector" d="M32.0008 64.0016C49.6744 64.0016 64.0016 49.6744 64.0016 32.0008C64.0016 14.3273 49.6744 0 32.0008 0C14.3273 0 0 14.3273 0 32.0008C0 49.6744 14.3273 64.0016 32.0008 64.0016Z" fill="#DA3F3D"/>
<path id="Vector_2" d="M63.9521 31.9103C63.768 31.6636 63.7614 31.4186 63.9521 31.1719V31.9103Z" fill="#0E0E0E"/>
<path id="Vector_3" d="M63.9521 33.1407C63.7614 32.8941 63.768 32.649 63.9521 32.4023V33.1407Z" fill="#0E0E0E"/>
<path id="Vector_4" d="M63.9521 30.677C63.8041 30.5536 63.763 30.4303 63.9521 30.3086V30.677Z" fill="#5C5C5C"/>
<path id="Vector_5" d="M63.9526 34.2469C63.7486 34.1745 63.8555 34.015 63.8522 33.8867C63.8802 33.8242 63.9131 33.8176 63.9526 33.8768V34.2452V34.2469Z" fill="#7C7C7C"/>
<path id="Vector_6" d="M63.9527 33.8756C63.9198 33.8822 63.8869 33.8855 63.8524 33.8855C63.8277 33.7769 63.8293 33.6799 63.9527 33.6289V33.8756Z" fill="#555555"/>
<path id="Vector_7" d="M52.8632 32.1554C52.8747 34.9643 52.8961 37.7731 52.7563 40.582C52.6363 43.006 52.1988 45.3494 50.8503 47.4183C48.8489 50.4902 45.897 51.9966 42.33 52.3288C37.6661 52.763 32.9875 52.5607 28.3137 52.564C25.8979 52.5656 23.4722 52.5837 21.086 52.0986C16.381 51.1431 13.1101 47.6781 12.3865 42.932C12.1168 41.1608 12.0592 39.3782 12.051 37.5971C12.0263 32.9843 11.9392 28.3697 12.1464 23.7585C12.222 22.0926 12.4391 20.4497 13.0542 18.8907C14.6 14.98 17.5536 12.8026 21.6304 12.1119C24.2879 11.6613 26.9833 11.7353 29.6688 11.7353C33.4002 11.7353 37.1333 11.6663 40.8631 11.8505C42.404 11.9278 43.9285 12.1103 45.3855 12.6365C49.487 14.1199 51.7581 17.1212 52.5047 21.3459C52.8303 23.1895 52.8221 25.0609 52.8583 26.9258C52.8912 28.6674 52.8648 30.4122 52.8648 32.1554H52.8632Z" fill="black"/>
<path id="Vector_8" d="M49.194 31.811C49.1792 34.9767 49.2334 37.8267 49.0624 40.6734C48.9917 41.864 48.8305 43.0382 48.3881 44.1532C47.2814 46.9423 45.0942 48.276 42.2294 48.6378C40.1524 48.9009 38.0589 48.8977 35.967 48.8894C31.9708 48.8713 27.973 48.9815 23.9784 48.7677C23.0361 48.7168 22.1004 48.6066 21.1926 48.3402C18.1716 47.4587 16.3232 45.1679 15.9548 41.9183C15.8282 40.7951 15.7624 39.6702 15.7525 38.5454C15.7114 33.5444 15.5979 28.5417 15.8512 23.544C15.9696 21.1923 16.5551 19.0166 18.4512 17.3968C19.6829 16.3443 21.1383 15.8591 22.7039 15.6684C24.7415 15.4184 26.7939 15.4102 28.843 15.4201C32.8803 15.4381 36.9192 15.3247 40.9549 15.5417C42.0222 15.5993 43.078 15.7342 44.091 16.0828C47.1054 17.1205 48.5756 19.3702 48.9358 22.4208C49.3173 25.6457 49.1545 28.8904 49.194 31.8094V31.811Z" fill="#DA3F3D"/>
<path id="Vector_9" d="M32.4535 21.6797C38.2571 21.6797 42.9226 26.3386 42.9292 32.1405C42.9357 37.9671 38.2505 42.6441 32.419 42.6309C26.6221 42.6178 21.9664 37.9408 21.9746 32.1372C21.9828 26.3353 26.6484 21.678 32.4535 21.6797V21.6797Z" fill="black"/>
<path id="Vector_10" d="M43.3248 23.6883C41.9549 23.6768 40.8991 22.5865 40.9172 21.2051C40.9353 19.8681 42.0158 18.8008 43.3528 18.8008C44.7062 18.8008 45.813 19.9141 45.8031 21.2659C45.7932 22.6292 44.6963 23.7015 43.3232 23.69L43.3248 23.6883Z" fill="black"/>
<path id="Vector_11" d="M39.245 32.1502C39.2483 35.9195 36.2273 38.9471 32.4564 38.9504C28.6871 38.9536 25.6595 35.9326 25.6563 32.1618C25.653 28.3909 28.674 25.3666 32.4449 25.3633C36.2158 25.36 39.24 28.3793 39.2433 32.1519L39.245 32.1502Z" fill="#DA3F3D"/>
</g>
<defs>
<clipPath id="clip0_209_1753">
<rect width="64" height="64" fill="white"/>
</clipPath>
</defs>
</svg>
